<svg width="70" height="70" viewBox="0 0 70 70" fill="none" xmlns="http://www.w3.org/2000/svg">
<rect width="70" height="70" fill="#121212"/>
<g filter="url(#filter0_d_3_32)">
<path d="M6 12C6 54.3935 25.3333 64.3253 35 63.992C58.2 63.992 64 29.3307 64 12" stroke="#CFB31D" stroke-linecap="round"/>
<path d="M30.3226 50.5H39.6775" stroke="#CFB31D" stroke-linecap="round"/>
<path d="M37.3111 37.0686L37.2425 36.5734L38.233 36.4361L38.3017 36.9314L37.3111 37.0686ZM40.1726 50.4314C40.2105 50.7049 40.0195 50.9574 39.746 50.9953C39.4725 51.0332 39.22 50.8422 39.1821 50.5686L40.1726 50.4314ZM38.3017 36.9314L40.1726 50.4314L39.1821 50.5686L37.3111 37.0686L38.3017 36.9314Z" fill="#CFB31D"/>
<path d="M35 25C30.5097 25 29.3871 29 29.3871 31C29.3871 35.8 33.129 37 35 37C39.4903 37 40.6129 33 40.6129 31C40.6129 26.2 37.1828 25 35.4677 25" stroke="#CFB31D" stroke-linecap="square"/>
<path d="M32.6889 37.0686L32.7575 36.5734L31.767 36.4361L31.6983 36.9314L32.6889 37.0686ZM29.8274 50.4314C29.7895 50.7049 29.9805 50.9574 30.254 50.9953C30.5275 51.0332 30.78 50.8422 30.8179 50.5686L29.8274 50.4314ZM31.6983 36.9314L29.8274 50.4314L30.8179 50.5686L32.6889 37.0686L31.6983 36.9314Z" fill="#CFB31D"/>
<g filter="url(#filter1_d_3_32)">
<path d="M35 6C35 14.1741 15.6667 13.5342 6 12.1925" stroke="#CFB31D" stroke-linecap="round"/>
</g>
<path d="M35 6C35 14.1741 54.3333 13.5342 64 12.1925" stroke="#CFB31D" stroke-linecap="round"/>
</g>
<defs>
<filter id="filter0_d_3_32" x="4.49994" y="4.5" width="63.0001" height="63" filterUnits="userSpaceOnUse" color-interpolation-filters="sRGB">
<feFlood flood-opacity="0" result="BackgroundImageFix"/>
<feColorMatrix in="SourceAlpha" type="matrix" values="0 0 0 0 0 0 0 0 0 0 0 0 0 0 0 0 0 0 127 0" result="hardAlpha"/>
<feOffset dx="1" dy="1"/>
<feGaussianBlur stdDeviation="1"/>
<feComposite in2="hardAlpha" operator="out"/>
<feColorMatrix type="matrix" values="0 0 0 0 0 0 0 0 0 0 0 0 0 0 0 0 0 0 0.5 0"/>
<feBlend mode="normal" in2="BackgroundImageFix" result="effect1_dropShadow_3_32"/>
<feBlend mode="normal" in="SourceGraphic" in2="effect1_dropShadow_3_32" result="shape"/>
</filter>
<filter id="filter1_d_3_32" x="1.49994" y="5.5" width="38.0001" height="16" filterUnits="userSpaceOnUse" color-interpolation-filters="sRGB">
<feFlood flood-opacity="0" result="BackgroundImageFix"/>
<feColorMatrix in="SourceAlpha" type="matrix" values="0 0 0 0 0 0 0 0 0 0 0 0 0 0 0 0 0 0 127 0" result="hardAlpha"/>
<feOffset dy="4"/>
<feGaussianBlur stdDeviation="2"/>
<feComposite in2="hardAlpha" operator="out"/>
<feColorMatrix type="matrix" values="0 0 0 0 0 0 0 0 0 0 0 0 0 0 0 0 0 0 0.25 0"/>
<feBlend mode="normal" in2="BackgroundImageFix" result="effect1_dropShadow_3_32"/>
<feBlend mode="normal" in="SourceGraphic" in2="effect1_dropShadow_3_32" result="shape"/>
</filter>
</defs>
</svg>
